<svg width="20" height="21" viewBox="0 0 20 21" fill="none" xmlns="http://www.w3.org/2000/svg">
<rect x="20" y="20.8701" width="20" height="20" rx="10" transform="rotate(-180 20 20.8701)" fill="#F2EEF7"/>
<mask id="mask0_4141_2081" style="mask-type:alpha" maskUnits="userSpaceOnUse" x="0" y="0" width="20" height="21">
<rect x="20" y="20.8701" width="20" height="20" transform="rotate(-180 20 20.8701)" fill="#D9D9D9"/>
</mask>
<g mask="url(#mask0_4141_2081)">
<path d="M5.28125 8.59928C5.43403 8.44651 5.57986 8.37012 5.71875 8.37012C5.85764 8.37012 6.00347 8.44651 6.15625 8.59928L9.51042 11.9535L12.8646 8.59928C13.0174 8.44651 13.1632 8.37012 13.3021 8.37012C13.441 8.37012 13.5868 8.44651 13.7396 8.59928C13.8924 8.75206 13.9688 8.89789 13.9688 9.03678C13.9688 9.17567 13.8924 9.32151 13.7396 9.47428L10.1771 13.0368C10.066 13.1479 9.95486 13.2278 9.84375 13.2764C9.73264 13.325 9.62153 13.3493 9.51042 13.3493C9.39931 13.3493 9.28819 13.325 9.17708 13.2764C9.06597 13.2278 8.95486 13.1479 8.84375 13.0368L5.28125 9.47428C5.12847 9.32151 5.05208 9.17567 5.05208 9.03678C5.05208 8.8979 5.12847 8.75206 5.28125 8.59928Z" fill="#8C64B4"/>
</g>
</svg>
