<svg width="20" height="21" viewBox="0 0 20 21" fill="none" xmlns="http://www.w3.org/2000/svg">
<rect y="0.870117" width="20" height="20" rx="10" fill="#F2EEF7"/>
<mask id="mask0_4141_9059" style="mask-type:alpha" maskUnits="userSpaceOnUse" x="0" y="0" width="20" height="21">
<rect y="0.870117" width="20" height="20" fill="#D9D9D9"/>
</mask>
<g mask="url(#mask0_4141_9059)">
<path d="M14.7187 13.141C14.566 13.2937 14.4201 13.3701 14.2812 13.3701C14.1424 13.3701 13.9965 13.2937 13.8437 13.141L10.4896 9.78678L7.13542 13.141C6.98264 13.2937 6.83681 13.3701 6.69792 13.3701C6.55903 13.3701 6.41319 13.2937 6.26042 13.141C6.10764 12.9882 6.03125 12.8423 6.03125 12.7035C6.03125 12.5646 6.10764 12.4187 6.26042 12.266L9.82292 8.70345C9.93403 8.59234 10.0451 8.51248 10.1562 8.46387C10.2674 8.41526 10.3785 8.39095 10.4896 8.39095C10.6007 8.39095 10.7118 8.41526 10.8229 8.46387C10.934 8.51248 11.0451 8.59234 11.1562 8.70345L14.7187 12.266C14.8715 12.4187 14.9479 12.5646 14.9479 12.7035C14.9479 12.8423 14.8715 12.9882 14.7187 13.141Z" fill="#8C64B4"/>
</g>
</svg>
